REM MD5 822eec6a2c83f61ca69bc813172e7938
FILE "Unsolved, The - Hyper Science Adventure (Japan) (Disc 1).bin" BINARY
  TRACK 01 MODE2/2352
    INDEX 01 00:00:00
  TRACK 02 AUDIO
    INDEX 00 39:09:58
    INDEX 01 39:11:58
  TRACK 03 AUDIO
    INDEX 00 43:11:45
    INDEX 01 43:13:45
REM LEADOUT 47:41:64
